<?xml version="1.0" encoding="UTF-8"?>
<!DOCTYPE svg PUBLIC "-//W3C//DTD SVG 1.1//EN" "http://www.w3.org/Graphics/SVG/1.1/DTD/svg11.dtd">
<svg xmlns="http://www.w3.org/2000/svg" xml:space="preserve" width="512px" height="512px" version="1.1" style="shape-rendering:geometricPrecision; text-rendering:geometricPrecision; image-rendering:optimizeQuality; fill-rule:evenodd; clip-rule:evenodd"
viewBox="0 0 167599 167599"
 xmlns:xlink="http://www.w3.org/1999/xlink">
 <defs>
  <style type="text/css">
   <![CDATA[
    .fil0 {fill:white}
    .fil1 {fill:black;fill-rule:nonzero}
    .fil2 {fill:#59FFD8}
   ]]>
  </style>
 </defs>
 <g>
  <g>
   <circle class="fil0" cx="83799" cy="83799" r="81308"/>
   <path class="fil1" d="M83799 0c23140,0 44090,9380 59255,24545 15165,15165 24545,36115 24545,59255 0,23140 -9380,44090 -24545,59255 -15164,15165 -36115,24545 -59255,24545 -23140,0 -44091,-9380 -59255,-24545 -15165,-15165 -24545,-36115 -24545,-59255 0,-23140 9380,-44090 24545,-59255 15165,-15165 36115,-24545 59255,-24545zm55732 28068c-14263,-14263 -33967,-23085 -55732,-23085 -21765,0 -41469,8822 -55732,23085 -14263,14263 -23085,33967 -23085,55732 0,21765 8822,41469 23085,55732 14263,14263 33967,23085 55732,23085 21765,0 41469,-8822 55732,-23085 14263,-14263 23085,-33967 23085,-55732 0,-21765 -8822,-41469 -23085,-55732z"/>
   <path class="fil2" d="M154568 43745c6706,11823 10539,25491 10539,40054 0,17344 -5434,33417 -14688,46617l-6739 -7216 -293 -11392 -11134 -22122 -293 -11134 -8644 -6007 -10988 2637 -20047 -8667 -2626 -19315 8621 -8632 16836 293 6153 8632 16701 2491 16602 -6239z"/>
   <path class="fil1" d="M156729 42519c3513,6193 6261,12875 8113,19915 1799,6836 2757,13998 2757,21366 0,8770 -1353,17233 -3860,25191 -2593,8230 -6428,15919 -11286,22847l-1762 2514 -2092 -2241 -6739 -7217 -638 -682 -24 -953 -279 -10824 -10886 -21629 -248 -493 -15 -568 -260 -9863 -6708 -4661 -9900 2376 -799 192 -759 -328 -20047 -8667 -1291 -558 -189 -1389 -2626 -19315 -165 -1216 866 -867 8620 -8632 748 -749 1053 18 16836 293 1259 22 727 1020 5536 7766 15029 2241 15991 -6010 1988 -747 1048 1847zm3305 21180c-1560,-5927 -3791,-11579 -6606,-16869l-14585 5481 -611 230 -625 -93 -16701 -2491 -1048 -156 -617 -866 -5426 -7612 -14524 -252 -7008 7016 2272 16711 17997 7780 10190 -2445 1087 -261 909 631 8644 6007 1027 714 34 1271 278 10566 10886 21629 248 493 15 568 268 10439 3967 4249c3751,-5822 6758,-12176 8885,-18927 2355,-7475 3626,-15441 3626,-23711 0,-6964 -898,-13700 -2581,-20101z"/>
   <path class="fil2" d="M8935 52027l4798 14659 16408 10841 1025 -10694 -5714 -5128 -147 -8936 19192 -2930 14210 -8205 8643 -14650 8351 -2051 2637 -8643 -17067 -2271 -7155 -5937c-20328,7975 -36664,23898 -45183,43946z"/>
   <path class="fil1" d="M11591 52147l4237 12942 12237 8085 512 -5334 -4777 -4287c-537,-480 -815,-1142 -826,-1810l-1 0 -147 -8937c-20,-1259 901,-2313 2113,-2494l-1 -7 18747 -2862 13209 -7626 8319 -14099c367,-621 962,-1023 1615,-1165l6916 -1699 1370 -4489 -14161 -1884c-482,-63 -913,-260 -1262,-549l-3 4 -6017 -4992c-9307,3853 -17716,9436 -24822,16348 -7243,7045 -13137,15473 -17257,24856zm-223 15307l-4798 -14658 1 0c-179,-551 -169,-1167 77,-1742 4392,-10335 10802,-19609 18735,-27325 7899,-7682 17307,-13821 27733,-17926 834,-366 1839,-259 2588,361l6614 5488 16343 2174 0 2c133,18 267,46 399,86 1311,398 2052,1784 1654,3095l-2595 8505c-211,874 -890,1603 -1823,1833l-7333 1801 -8113 13751 -5 -3c-211,358 -514,667 -900,888l-14019 8094c-306,214 -664,363 -1058,422l-17044 2602 94 5680 4836 4340c609,506 965,1295 885,2143l-1014 10573c-19,435 -153,871 -411,1260 -758,1145 -2301,1458 -3446,701l-16364 -10812c-474,-299 -851,-759 -1037,-1333z"/>
   <path class="fil2" d="M142488 27530l-7305 5460 -22854 -5567 -11281 3076 -8316 -3223 5679 -11427 11720 0 9001 -5299c8780,4243 16681,10019 23355,16979z"/>
   <path class="fil1" d="M143977 29525l-7305 5460c-670,500 -1509,612 -2248,376l-22065 -5375 -10659 2907c-532,145 -1070,106 -1547,-79l-1 2 -8316 -3223c-1279,-494 -1915,-1932 -1421,-3212 27,-70 57,-138 90,-204l-2 -1 5679 -11427c433,-876 1313,-1385 2229,-1386l0 -5 11060 0 8405 -4948c741,-435 1615,-441 2335,-94l1 -3c4516,2182 8798,4751 12802,7662 4036,2935 7807,6228 11265,9833 951,989 921,2562 -68,3514 -76,73 -155,140 -237,201l3 3zm-9351 773l4079 -3049c-2688,-2609 -5565,-5032 -8611,-7247 -3430,-2494 -7061,-4715 -10861,-6631l-7653 4505c-408,292 -908,464 -1448,464l-10183 0 -3779 7604 5017 1945 10390 -2834m1337 -47l21713 5289"/>
   <polygon class="fil2" points="38932,69908 44939,80456 64423,80896 72932,95230 84054,94972 80978,109464 70283,119865 69990,128802 58710,137006 58856,151363 50506,148140 44939,134955 44792,106680 30874,103457 25307,92176 25454,83387 "/>
   <path class="fil1" d="M41187 68847l5216 9160 18069 408c892,17 1665,503 2089,1219l4 -2 7766 13084 9675 -225c1371,-27 2504,1063 2530,2433 3,194 -15,382 -53,564l4 1 -3076 14492c-114,541 -397,1003 -781,1344l-9897 9626 -260 7930c-25,799 -425,1497 -1025,1933l3 4 -10246 7451 133 13076c11,1371 -1091,2491 -2462,2501 -322,3 -631,-57 -914,-166l0 1 -8351 -3223c-682,-263 -1182,-796 -1424,-1429l-5535 -13110c-135,-321 -197,-655 -194,-983l-136 -26275 -12001 -2779c-778,-178 -1386,-703 -1700,-1376l-5541 -11228c-201,-409 -280,-846 -251,-1270l144 -8658c10,-671 287,-1276 727,-1716l-7 -7 13478 -13478c973,-973 2551,-973 3523,0 210,209 373,447 493,700zm1591 12836l-4389 -7708 -10470 10470 -119 7165 4782 9690 12766 2956 -1 4c1101,251 1923,1233 1928,2410l144 27776 4963 11755 3956 1527 -107 -10520c-67,-837 290,-1688 1020,-2217l10299 -7490 251 -7643c2,-645 253,-1289 752,-1774l10150 -9872 2268 -10686 -7823 181c-923,79 -1853,-362 -2355,-1212l-7805 -13149 -17996 -406c-882,17 -1746,-437 -2212,-1258z"/>
  </g>
 </g>
</svg>
