<?xml version="1.0" encoding="UTF-8"?><svg width="25px" height="25px" viewBox="0 0 1920 1920" xmlns="http://www.w3.org/2000/svg"><path d="m972.67 550.59c74.37 0 213.82-103.39 360.63-88.315 61.446 2.608 233.88 25.282 344.64 190.46-8.843 5.895-205.88 122.78-203.5 366.18 2.495 290.91 249.98 387.5 252.82 388.97-2.268 6.575-39.566 137.86-130.49 273.45-78.565 117.11-159.96 233.66-288.3 236.04-126.18 2.494-166.77-76.298-311.09-76.298-144.21 0-189.21 73.917-308.71 78.792-123.91 4.762-218.24-126.52-297.37-243.18-161.89-238.87-285.58-674.66-119.49-968.86 82.42-146.13 229.8-238.64 389.88-241.02 121.65-2.267 236.6 83.78 310.97 83.78zm395.08-550.59c13.038 110.54-34.69 221.52-105.09 301.45-70.743 79.813-186.49 141.94-299.98 133.55-15.305-108.5 41.947-221.18 107.25-292.15 73.011-79.812 196.24-138.99 297.82-142.85z" fill-rule="evenodd"/></svg>
